# xmcd CD database file
#
# Track frame offsets:
#	150
#	18085
#	41187
#	65405
#	86767
#	108665
#	112277
#	135990
#	159540
#	185090
#	209190
#	232230
#
# Disc length: 3436 seconds
#
# Revision: 0
# Processed by: cddbd v1.5.2PL0 Copyright (c) Steve Scherf et al.
# Submitted via: CDex 1.70beta2
#
DISCID=b70d6a0c
DTITLE=Samoa - No Band Is An Island
DYEAR=1987
DGENRE=Jazz
TTITLE0=Re-bop
TTITLE1='A' Side Story
TTITLE2='More we change
TTITLE3=Sweet Spot
TTITLE4=Mister 'E'
TTITLE5=My Lifetime (intro)
TTITLE6=My Lifetime
TTITLE7=The Main Stream
TTITLE8=Lightin' It Up
TTITLE9=Never Alone
TTITLE10=Constant Reminder
TTITLE11=One More Fret
EXTD=YEAR: 1987
EXTT0=
EXTT1=
EXTT2=
EXTT3=
EXTT4=
EXTT5=
EXTT6=
EXTT7=
EXTT8=
EXTT9=
EXTT10=
EXTT11=
PLAYORDER=
